<svg width="181" height="191" viewBox="0 0 181 191" fill="none" xmlns="http://www.w3.org/2000/svg">
<path d="M90.5822 189.768C87.5222 189.768 84.5122 188.918 81.8522 187.298L19.8722 149.638C14.3322 146.268 10.9022 139.938 10.9022 133.098V58.3876C10.9022 51.5676 14.3322 45.2276 19.8722 41.8476L81.8522 4.18764C87.1822 0.947643 94.0022 0.967643 99.3022 4.18764L161.272 41.8676C166.812 45.2376 170.262 51.5676 170.262 58.4076V133.108C170.262 138.868 167.812 144.288 163.712 147.858V147.888L99.3022 187.318C96.6622 188.918 93.6422 189.768 90.5822 189.768ZM89.9322 8.71764C87.9822 8.71764 85.5022 9.92764 83.7922 10.9776L23.0422 48.1676C19.2922 50.4476 17.1722 57.0476 17.1722 61.7976L17.8022 133.098C17.8022 137.848 21.0022 142.118 24.7522 144.398L85.1522 180.778C88.5822 182.868 91.3822 182.868 94.8122 180.778L156.022 144.308C159.772 142.018 162.792 137.828 162.792 133.098V59.4576C162.792 54.7176 160.062 49.8276 156.292 47.5376L95.7122 10.9776C94.0022 9.93764 91.8822 8.71764 89.9322 8.71764Z" fill="#F2F1F0"/>
<path fill-rule="evenodd" clip-rule="evenodd" d="M82.6821 12.2977C85.1321 10.7977 87.8522 10.0477 90.5822 10.0477C93.3022 10.0477 96.0321 10.8077 98.4821 12.2977L154.612 46.6277C159.632 49.6977 162.742 55.4477 162.742 61.6977V129.798C162.742 136.028 159.642 141.798 154.612 144.868L98.4821 179.208C96.0321 180.708 93.3122 181.458 90.5822 181.458C87.8622 181.458 85.1321 180.718 82.6821 179.208L26.5521 144.878C21.5321 141.808 18.4221 136.038 18.4221 129.808V61.7077C18.4221 55.4777 21.5221 49.7277 26.5521 46.6377L82.6821 12.2977Z" fill="url(#paint0_linear)"/>
<path d="M97.2522 11.9376L155.722 47.4776C160.002 50.0776 162.742 55.0276 162.742 60.5076V130.988C162.742 138.408 159.992 141.408 155.722 144.018L97.2522 179.558C95.1622 180.828 92.8622 181.798 90.5822 181.798C88.3022 181.798 86.0022 180.838 83.9122 179.558L25.4522 144.018C21.1722 141.418 18.4322 136.468 18.4322 130.988V60.5076C18.4322 55.0276 21.1722 50.0876 25.4522 47.4776L83.9122 11.9376C86.0022 10.6676 88.3022 9.51764 90.5822 9.51764C92.8822 9.51764 95.1622 10.6776 97.2522 11.9376Z" stroke="#0078D4" stroke-width="4"/>
<path opacity="0.2" d="M99.6422 51.8776V64.2076C99.6422 64.5976 99.9622 64.9176 100.352 64.9176H111.062L115.102 68.9276C115.292 69.1176 115.622 68.9776 115.622 68.7076V64.9076H119.472C119.862 64.9076 120.182 64.5876 120.182 64.1976V51.8776C120.182 51.4976 119.872 51.1976 119.502 51.1976H100.332C99.9522 51.1976 99.6422 51.5076 99.6422 51.8776Z" fill="#1F1D21"/>
<path d="M90.6322 50.9077H86.8622V113.098H90.6322V50.9077Z" fill="url(#paint1_linear)"/>
<path d="M150.672 113.098V109.328H86.8622V113.098H150.672Z" fill="url(#paint2_linear)"/>
<path d="M101.702 78.0176L95.9522 83.7676V89.4576L104.512 80.8976L101.702 78.0176Z" fill="#185A97"/>
<path d="M121.692 92.3176V69.4576L110.262 80.8876L121.692 92.3176Z" fill="#185A97"/>
<path d="M130.312 78.0176L124.562 72.3276V89.4476L144.552 69.4576L150.302 75.2076V57.9576L130.312 78.0176Z" fill="#185A97"/>
<path d="M124.572 89.4476V103.758H150.312V75.1376L144.562 69.4476L124.572 89.4476Z" fill="url(#paint3_linear)"/>
<path d="M121.692 92.3176L107.382 78.0076L95.9522 89.4476V103.758H121.692V92.3176Z" fill="url(#paint4_linear)"/>
<path d="M31.3122 83.2377C30.8622 86.1677 32.3022 88.9577 34.7322 90.3477L34.4822 78.4077C32.8422 79.4477 31.6322 81.1577 31.3122 83.2377Z" fill="url(#paint5_linear)"/>
<path d="M39.6622 93.5876L36.9122 92.8176C36.0122 92.4176 35.4322 91.5376 35.4122 90.5576L35.2022 76.7176C35.1822 75.6376 35.8622 74.6676 36.8822 74.3076L39.3322 73.4976C40.3422 73.1576 41.4022 73.8876 41.4422 74.9576C41.4422 74.9576 41.7022 80.3376 41.7722 83.2876C41.8422 86.2376 41.6922 92.0376 41.6922 92.0376C41.6922 93.1076 40.6822 93.8676 39.6622 93.5876Z" fill="url(#paint6_linear)"/>
<path d="M30.6922 125.198C32.2122 111.568 43.9022 100.848 58.0522 100.848C72.0822 100.848 83.6622 111.338 85.4122 124.848C85.6422 125.778 85.6422 126.828 85.6422 127.758C85.2922 131.608 82.6022 135.328 77.5722 138.248C66.8122 144.428 49.2722 144.428 38.6322 138.248C33.6022 135.338 31.0322 131.608 30.6822 127.758C30.4522 126.938 30.5722 126.008 30.6922 125.198Z" fill="white"/>
<path d="M58.0222 100.708C47.8422 100.708 39.5922 92.5076 39.5922 82.3876C39.5922 72.2676 47.8422 64.0676 58.0222 64.0676C68.2022 64.0676 76.4522 72.2676 76.4522 82.3876C76.4522 92.4976 68.2022 100.708 58.0222 100.708Z" fill="white"/>
<path d="M43.4422 68.3476C47.3622 64.5776 52.5622 62.5476 58.0822 62.6476C63.4622 62.7376 68.5022 64.8876 72.2722 68.6776C76.0522 72.4776 78.1322 77.5076 78.1322 82.8276C78.1322 83.9076 78.0422 84.9976 77.8722 86.0676C77.8022 86.4976 77.4322 86.8076 77.0022 86.8076H75.5522C75.4722 86.8076 75.3922 86.7676 75.3422 86.7076C75.3122 86.6776 75.2722 86.5976 75.2922 86.4976C75.5522 85.2976 75.6822 84.0576 75.6822 82.8276C75.6822 78.0476 73.7922 73.5676 70.3522 70.2076C66.9622 66.8876 62.4822 65.0676 57.7122 65.0676C57.6522 65.0676 57.5822 65.0676 57.5222 65.0676C47.7722 65.1676 39.8022 73.0876 39.7422 82.7276C39.7322 83.9876 39.8622 85.2476 40.1222 86.4776C40.1422 86.5576 40.1222 86.6376 40.0722 86.7076C40.0422 86.7476 39.9822 86.7976 39.8722 86.7976H38.4122C37.9722 86.7976 37.6122 86.4876 37.5322 86.0576C37.3522 84.9276 37.2622 83.7676 37.2722 82.6176C37.3422 77.1976 39.5222 72.1176 43.4422 68.3476Z" fill="url(#paint7_linear)"/>
<path d="M83.2422 78.1876C83.6722 81.1276 82.2122 83.8976 79.7722 85.2776L80.1022 73.3376C81.7422 74.3876 82.9322 76.1076 83.2422 78.1876Z" fill="url(#paint8_linear)"/>
<path d="M74.6722 89.0876L77.4322 88.3376C78.3322 87.9476 78.9222 87.0676 78.9422 86.0876L79.2422 72.2576C79.2622 71.1776 78.6022 70.2076 77.5822 69.8376L75.1322 69.0076C74.1222 68.6676 73.0622 69.3876 73.0122 70.4476C73.0122 70.4476 72.7122 75.8276 72.6222 78.7776C72.5322 81.7276 72.6422 87.5276 72.6422 87.5276C72.6522 88.5976 73.6522 89.3676 74.6722 89.0876Z" fill="url(#paint9_linear)"/>
<path d="M53.9722 101.818L56.8322 102.328C57.9922 102.328 58.9422 101.388 58.9422 100.218C58.9422 99.0576 58.0022 98.1076 56.8322 98.1076L53.9722 98.6176C53.1922 98.7576 52.6322 99.4276 52.6322 100.218C52.6322 101.008 53.1922 101.678 53.9722 101.818Z" fill="url(#paint10_linear)"/>
<path d="M52.8022 100.528C53.5122 100.528 54.1422 100.498 54.6422 100.468C54.7122 100.468 54.7722 100.458 54.7922 100.458V99.3376C54.7622 99.3376 54.6922 99.3376 54.5722 99.3476C51.9022 99.5176 45.3322 99.5276 42.1422 96.0376C38.8122 92.3976 38.1122 86.1676 38.1022 86.0976L36.8222 84.9176C36.8322 84.9976 37.0522 86.9276 37.7022 89.3576C38.5922 92.6476 39.8022 95.1576 41.3122 96.8076C44.2122 99.9676 49.4622 100.528 52.8022 100.528Z" fill="url(#paint11_linear)"/>
<path d="M99.6422 50.8377V63.1677C99.6422 63.5577 99.9622 63.8777 100.352 63.8777H111.062L115.102 67.8877C115.292 68.0777 115.622 67.9377 115.622 67.6677V63.8677H119.472C119.862 63.8677 120.182 63.5477 120.182 63.1577V50.8377C120.182 50.4577 119.872 50.1577 119.502 50.1577H100.332C99.9522 50.1577 99.6422 50.4677 99.6422 50.8377Z" fill="white"/>
<path opacity="0.2" d="M154.762 94.9277H119.702V117.538C119.702 118.498 120.472 119.268 121.432 119.268H125.112V124.608L130.492 119.268H153.032C153.992 119.268 154.762 118.498 154.762 117.538V94.9277Z" fill="#1F1D21"/>
<path d="M153.582 93.3577H120.872C120.222 93.3577 119.702 93.8877 119.702 94.5277V116.518C119.702 117.168 120.232 117.688 120.872 117.688H125.112V123.028L130.492 117.688H153.582C154.232 117.688 154.752 117.158 154.752 116.518V94.5277C154.762 93.8777 154.232 93.3577 153.582 93.3577Z" fill="white"/>
<path d="M142.672 101.378H131.772C131.342 101.378 130.992 101.728 130.992 102.158C130.992 102.588 131.342 102.938 131.772 102.938H142.672C143.102 102.938 143.452 102.588 143.452 102.158C143.452 101.728 143.102 101.378 142.672 101.378Z" fill="url(#paint12_linear)"/>
<path d="M142.672 104.808H131.772C131.342 104.808 130.992 105.158 130.992 105.588C130.992 106.018 131.342 106.368 131.772 106.368H142.672C143.102 106.368 143.452 106.018 143.452 105.588C143.452 105.168 143.102 104.808 142.672 104.808Z" fill="url(#paint13_linear)"/>
<path d="M142.672 108.248H131.772C131.342 108.248 130.992 108.598 130.992 109.028C130.992 109.458 131.342 109.808 131.772 109.808H142.672C143.102 109.808 143.452 109.458 143.452 109.028C143.452 108.598 143.102 108.248 142.672 108.248Z" fill="url(#paint14_linear)"/>
<path d="M106.562 59.8476C106.762 58.0976 108.262 56.7176 110.082 56.7176C111.892 56.7176 113.382 58.0676 113.602 59.8076C113.632 59.9276 113.632 60.0576 113.632 60.1776C113.582 60.6676 113.242 61.1476 112.592 61.5276C111.212 62.3176 108.952 62.3176 107.582 61.5276C106.932 61.1576 106.602 60.6776 106.562 60.1776C106.532 60.0776 106.542 59.9576 106.562 59.8476Z" fill="#185A97"/>
<path d="M110.072 56.3676C108.942 56.3676 108.032 55.4576 108.032 54.3376C108.032 53.2176 108.942 52.3076 110.072 52.3076C111.202 52.3076 112.112 53.2176 112.112 54.3376C112.122 55.4576 111.202 56.3676 110.072 56.3676Z" fill="#185A97"/>
<path d="M54.8221 94.6277C52.1721 94.6277 49.9921 92.6477 49.6821 90.0977H59.9521C59.6521 92.6477 57.4721 94.6277 54.8221 94.6277Z" fill="#50E6FF"/>
<defs>
<linearGradient id="paint0_linear" x1="90.5818" y1="10.046" x2="90.5818" y2="181.46" gradientUnits="userSpaceOnUse">
<stop stop-color="#00ABDE"/>
<stop offset="1" stop-color="#007ED8"/>
</linearGradient>
<linearGradient id="paint1_linear" x1="83.1691" y1="65.5993" x2="173.43" y2="331.072" gradientUnits="userSpaceOnUse">
<stop offset="0.3643" stop-color="#4DC1EA"/>
<stop offset="0.585" stop-color="#0078D4"/>
</linearGradient>
<linearGradient id="paint2_linear" x1="101.176" y1="59.4768" x2="191.437" y2="324.95" gradientUnits="userSpaceOnUse">
<stop offset="0.3643" stop-color="#4DC1EA"/>
<stop offset="0.585" stop-color="#0078D4"/>
</linearGradient>
<linearGradient id="paint3_linear" x1="124.548" y1="51.5304" x2="214.809" y2="317.003" gradientUnits="userSpaceOnUse">
<stop offset="0.3643" stop-color="#4DC1EA"/>
<stop offset="0.585" stop-color="#0078D4"/>
</linearGradient>
<linearGradient id="paint4_linear" x1="96.2806" y1="61.1412" x2="186.541" y2="326.614" gradientUnits="userSpaceOnUse">
<stop offset="0.3643" stop-color="#4DC1EA"/>
<stop offset="0.585" stop-color="#0078D4"/>
</linearGradient>
<linearGradient id="paint5_linear" x1="55.3242" y1="22.0686" x2="25.7504" y2="107.838" gradientUnits="userSpaceOnUse">
<stop stop-color="#007ED8"/>
<stop offset="0.7065" stop-color="#002D4C"/>
</linearGradient>
<linearGradient id="paint6_linear" x1="59.6343" y1="22.9913" x2="30.0605" y2="108.761" gradientUnits="userSpaceOnUse">
<stop stop-color="#007ED8"/>
<stop offset="0.7065" stop-color="#002D4C"/>
</linearGradient>
<linearGradient id="paint7_linear" x1="66.6334" y1="33.3794" x2="50.8738" y2="120.714" gradientUnits="userSpaceOnUse">
<stop stop-color="#007ED8"/>
<stop offset="0.7065" stop-color="#002D4C"/>
</linearGradient>
<linearGradient id="paint8_linear" x1="83.4706" y1="21.3642" x2="80.5668" y2="112.048" gradientUnits="userSpaceOnUse">
<stop stop-color="#007ED8"/>
<stop offset="0.7065" stop-color="#002D4C"/>
</linearGradient>
<linearGradient id="paint9_linear" x1="77.7462" y1="21.1808" x2="74.8426" y2="111.865" gradientUnits="userSpaceOnUse">
<stop stop-color="#007ED8"/>
<stop offset="0.7065" stop-color="#002D4C"/>
</linearGradient>
<linearGradient id="paint10_linear" x1="69.761" y1="22.7812" x2="53.6491" y2="112.068" gradientUnits="userSpaceOnUse">
<stop stop-color="#007ED8"/>
<stop offset="0.7065" stop-color="#002D4C"/>
</linearGradient>
<linearGradient id="paint11_linear" x1="58.4381" y1="22.6906" x2="42.7134" y2="109.832" gradientUnits="userSpaceOnUse">
<stop stop-color="#007ED8"/>
<stop offset="0.7065" stop-color="#002D4C"/>
</linearGradient>
<linearGradient id="paint12_linear" x1="130.413" y1="92.3875" x2="153.846" y2="126.025" gradientUnits="userSpaceOnUse">
<stop stop-color="#007ED8"/>
<stop offset="0.7065" stop-color="#002D4C"/>
</linearGradient>
<linearGradient id="paint13_linear" x1="128.805" y1="93.508" x2="152.238" y2="127.146" gradientUnits="userSpaceOnUse">
<stop stop-color="#007ED8"/>
<stop offset="0.7065" stop-color="#002D4C"/>
</linearGradient>
<linearGradient id="paint14_linear" x1="127.193" y1="94.6307" x2="150.626" y2="128.268" gradientUnits="userSpaceOnUse">
<stop stop-color="#007ED8"/>
<stop offset="0.7065" stop-color="#002D4C"/>
</linearGradient>
</defs>
</svg>
